#!OML:ASF F:\VICON\USERDATA\INSTALL\rory3\rory3.ASF
:FULLY-SPECIFIED
:DEGREES
983
root -1.97826 16.9952 0.533084 38.6718 4.21617 362.753
lowerback -2.71626 -5.79312 7.55324
upperback -14.4984 -7.56468 1.32243
thorax -15.4175 -4.56478 -1.78338
lowerneck -16.4047 -13.3382 -11.655
upperneck 10.2575 -17.6294 13.6688
head 8.13216 -7.84495 3.9799
rclavicle 3.8266e-014 5.1684e-015
rhumerus -29.6149 -17.4544 -80.9831
rradius 19.9791
rwrist 7.62613
rhand 2.61164 13.6565
rfingers 7.12502
rthumb 28.0894 -14.2602
lclavicle 3.8266e-014 5.1684e-015
lhumerus -35.9509 10.1042 77.5752
lradius 22.3701
lwrist -24.1842
lhand 3.41271 18.0459
lfingers 7.12502
lthumb 28.8549 45.8345
rfemur -58.2479 7.50089 17.71
rtibia 26.1253
rfoot -50.5031 -40.4415
rtoes 42.3921
lfemur -1.66088 2.61961 -18.206
ltibia 6.36111e-015
lfoot -47.929 32.2526
ltoes 48.8279
984
root -1.97617 16.9892 0.555314 38.581 4.20017 362.537
lowerback -2.26273 -5.72088 7.76626
upperback -14.4276 -7.40529 1.40275
thorax -15.6231 -4.50191 -1.78069
lowerneck -16.4608 -13.4042 -11.5754
upperneck 10.0107 -17.6862 13.6022
head 8.05222 -7.8788 3.93751
rclavicle -1.73937e-014 -1.45113e-014
rhumerus -29.3827 -14.8873 -82.6389
rradius 21.3851
rwrist 6.75031
rhand 4.55651 13.7101
rfingers 7.12502
rthumb 29.9469 -13.8868
lclavicle -1.73937e-014 -1.45113e-014
lhumerus -36.038 9.2215 79.277
lradius 21.9688
lwrist -24.2727
lhand 3.78199 17.9131
lfingers 7.12502
lthumb 29.2075 45.641
rfemur -58.1421 7.67721 17.9137
rtibia 26.232
rfoot -50.7072 -40.1752
rtoes 42.537
lfemur -1.46465 2.78966 -18.0531
ltibia -1.90833e-014
lfoot -47.4517 32.0059
ltoes 49.3278
985
root -1.96944 16.9903 0.573032 38.9227 4.65772 362.02
lowerback -2.11209 -5.64395 8.65716
upperback -14.5714 -7.20324 1.61732
thorax -16.0159 -4.50598 -2.00267
lowerneck -16.6121 -13.4007 -11.3436
upperneck 9.92617 -17.6578 13.3434
head 7.99636 -7.87309 3.82059
rclavicle 8.85089e-014 -1.82882e-014
rhumerus -29.519 -12.4245 -83.9872
rradius 22.8908
rwrist 5.68332
rhand 6.48449 14.4511
rfingers 7.12502
rthumb 31.7849 -12.7978
lclavicle 8.85089e-014 -1.82882e-014
lhumerus -36.3404 8.27316 81.0178
lradius 21.7367
lwrist -24.444
lhand 3.78996 17.5014
lfingers 7.12502
lthumb 29.2152 45.228
rfemur -58.4079 7.67643 18.5882
rtibia 26.1977
rfoot -50.7866 -40.1989
rtoes 42.344
lfemur -1.83601 2.80596 -17.3823
ltibia -3.18055e-015
lfoot -47.397 31.2165
ltoes 49.9835
986
root -1.9599 16.978 0.607989 38.4096 4.57799 361.423
lowerback -1.83913 -5.46831 9.26415
upperback -13.8664 -6.91031 1.60225
thorax -15.3561 -4.40468 -2.42638
lowerneck -17.4173 -13.6027 -10.9227
upperneck 9.41266 -17.8955 13.3987
head 7.95752 -7.94465 3.70302
rclavicle -4.83047e-014 -7.7526e-015
rhumerus -28.3343 -10.8473 -85.5488
rradius 23.9486
rwrist 4.77834
rhand 8.11178 15.6596
rfingers 7.12502
rthumb 33.3333 -11.2697
lclavicle -4.83047e-014 -7.7526e-015
lhumerus -35.478 7.1793 82.7465
lradius 21.9017
lwrist -24.1629
lhand 3.00907 16.5072
lfingers 7.12502
lthumb 28.4692 44.361
rfemur -57.6559 8.16915 19.1223
rtibia 26.0065
rfoot -50.5458 -40.458
rtoes 41.6247
lfemur -1.0803 3.23561 -16.9238
ltibia -2.22639e-014
lfoot -47.7283 30.1466
ltoes 50.4959
987
root -1.95894 16.9789 0.615215 38.661 4.81031 361.368
lowerback -1.63334 -5.51457 9.49804
upperback -13.854 -6.92218 1.74098
thorax -15.496 -4.42666 -2.36982
lowerneck -17.52 -13.6978 -11.0321
upperneck 9.1249 -17.9766 13.5359
head 7.91419 -7.98 3.74668
rclavicle 2.24627e-014 1.70955e-014
rhumerus -27.8522 -8.47429 -87.0135
rradius 25.1654
rwrist 3.65923
rhand 9.41052 16.0605
rfingers 7.12502
rthumb 34.567 -10.5955
lclavicle 2.24627e-014 1.70955e-014
lhumerus -35.5311 5.26788 85.0197
lradius 22.2516
lwrist -22.0795
lhand 1.86216 15.8922
lfingers 7.12502
lthumb 27.3728 43.9243
rfemur -57.7911 8.02151 19.2886
rtibia 25.8291
rfoot -50.8401 -40.2995
rtoes 41.5609
lfemur -1.37432 3.1327 -16.7914
ltibia -1.27222e-014
lfoot -47.6429 30.3613
ltoes 50.6717
988
root -1.96664 16.9965 0.588856 40.102 5.53606 361.777
lowerback -2.22811 -5.65361 9.62498
upperback -14.3812 -7.13091 1.99194
thorax -15.8102 -4.55129 -2.13519
lowerneck -17.57 -13.757 -11.2548
upperneck 8.98662 -17.9931 13.6064
head 7.90644 -7.99099 3.79683
rclavicle -2.60905e-015 -1.39149e-014
rhumerus -27.8002 -6.20728 -88.0576
rradius 25.9742
rwrist 2.53872
rhand 9.49247 17.4067
rfingers 7.12502
rthumb 34.6448 -9.23158
lclavicle -2.60905e-015 -1.39149e-014
lhumerus -35.7758 4.50324 86.5463
lradius 22.7364
lwrist -24.015
lhand 5.22176 16.145
lfingers 7.12502
lthumb 30.5815 43.6254
rfemur -59.3362 7.14822 19.2205
rtibia 25.7322
rfoot -50.9689 -40.2794
rtoes 41.7465
lfemur -3.27911 2.44233 -16.8089
ltibia -2.54444e-014
lfoot -47.0085 32.72
ltoes 50.1363
989
root -1.96083 16.9931 0.617293 39.8607 5.56723 361.653
lowerback -1.67784 -5.67176 9.80198
upperback -14.2069 -7.07141 2.11965
thorax -15.9433 -4.52241 -2.0473
lowerneck -17.8826 -13.8316 -11.3879
upperneck 8.77055 -18.0221 13.7191
head 7.91444 -7.99171 3.8333
rclavicle -6.31141e-015 -2.28602e-014
rhumerus -27.62 -3.20234 -89.4329
rradius 27.5836
rwrist 0.603727
rhand 9.39904 16.6609
rfingers 7.12502
rthumb 34.5561 -9.99765
lclavicle -6.31141e-015 -2.28602e-014
lhumerus -35.7621 3.7903 88.0888
lradius 23.1686
lwrist -24.5039
lhand 6.56443 15.5255
lfingers 7.12502
lthumb 31.861 42.7592
rfemur -58.9313 7.21261 19.3862
rtibia 25.6762
rfoot -50.9259 -40.2136
rtoes 41.7279
lfemur -2.92638 2.50193 -16.731
ltibia -9.54166e-015
lfoot -47.9975 31.5543
ltoes 50.2709
990
root -1.95518 16.9858 0.649399 39.7783 5.66058 361.469
lowerback -1.29564 -5.67461 10.1176
upperback -14.1863 -6.989 2.28382
thorax -16.1871 -4.50618 -1.9965
lowerneck -17.7298 -13.8253 -11.6502
upperneck 8.47668 -17.9518 13.8601
head 7.82311 -7.97207 3.93992
rclavicle 2.22887e-014 2.62396e-014
rhumerus -27.9703 -0.0548899 -90.6881
rradius 29.7685
rwrist -1.63244
rhand 9.34914 15.3146
rfingers 7.12502
rthumb 34.5088 -11.3547
lclavicle 2.22887e-014 2.62396e-014
lhumerus -36.0607 2.68847 89.8943
lradius 23.8144
lwrist -23.5549
lhand 6.66698 15.2135
lfingers 7.12502
lthumb 31.9586 42.4277
rfemur -58.7135 7.26737 19.6166
rtibia 25.623
rfoot -50.8077 -40.2327
rtoes 41.5966
lfemur -2.71969 2.56635 -16.5417
ltibia -3.18055e-015
lfoot -49.1725 29.4456
ltoes 50.8519
991
root -1.95279 16.9783 0.670189 39.8088 5.63243 361.409
lowerback -0.839894 -5.66985 10.192
upperback -14.3409 -6.8927 2.46717
thorax -16.6578 -4.45994 -1.77106
lowerneck -17.4273 -13.8373 -12.1368
upperneck 8.32767 -17.8984 14.0485
head 7.78249 -7.96545 4.09529
rclavicle 6.78228e-014 -1.98785e-016
rhumerus -28.622 2.33906 -91.502
rradius 31.3593
rwrist -3.45686
rhand 8.72585 15.2583
rfingers 7.12502
rthumb 33.9169 -11.5439
lclavicle 6.78228e-014 -1.98785e-016
lhumerus -36.5105 0.849057 92.1864
lradius 24.4271
lwrist -22.3765
lhand 6.99895 15.187
lfingers 7.12502
lthumb 32.2747 42.3375
rfemur -58.7207 7.32884 19.6608
rtibia 25.669
rfoot -50.9242 -40.1019
rtoes 41.6212
lfemur -2.65391 2.65532 -16.5221
ltibia -1.59028e-014
lfoot -49.2231 27.7185
ltoes 51.734
992
root -1.95488 16.971 0.684881 40.022 5.49829 361.393
lowerback -0.543291 -5.63449 10.1124
upperback -14.4571 -6.78693 2.64228
thorax -16.9472 -4.38708 -1.50094
lowerneck -17.591 -13.902 -12.2552
upperneck 8.29025 -17.9082 13.9045
head 7.79164 -7.97767 4.05662
rclavicle -2.7805e-014 -1.61016e-014
rhumerus -28.9453 4.45472 -92.2951
rradius 33.0213
rwrist -4.78675
rhand 8.02731 14.1387
rfingers 7.12502
rthumb 33.253 -12.8077
lclavicle -2.7805e-014 -1.61016e-014
lhumerus -36.7289 -1.61968 94.746
lradius 25.1164
lwrist -21.5554
lhand 7.18378 15.4892
lfingers 7.12502
lthumb 32.4506 42.6037
rfemur -58.9183 7.44739 19.5785
rtibia 25.6625
rfoot -51.31 -39.5821
rtoes 42.2899
lfemur -2.82093 2.81479 -16.6026
ltibia 0
lfoot -49.0805 26.7209
ltoes 52.3376
993
root -1.95042 16.9658 0.713876 40.3242 5.56142 361.265
lowerback -0.515361 -5.58215 10.4163
upperback -14.5404 -6.66849 2.75471
thorax -17.1009 -4.365 -1.53813
lowerneck -17.9386 -13.9685 -12.0627
upperneck 8.30997 -17.9627 13.6519
head 7.8151 -8.00013 3.92172
rclavicle -5.32184e-014 -3.23025e-015
rhumerus -29.1801 6.55242 -93.2195
rradius 34.5304
rwrist -6.05268
rhand 6.73896 13.9587
rfingers 7.12502
rthumb 32.0272 -13.2418
lclavicle -5.32184e-014 -3.23025e-015
lhumerus -36.8851 -4.10362 96.9986
lradius 25.8238
lwrist -20.9943
lhand 7.42484 15.4679
lfingers 7.12502
lthumb 32.68 42.5351
rfemur -59.1544 7.47985 19.6853
rtibia 25.6403
rfoot -51.5284 -39.3305
rtoes 42.427
lfemur -3.0853 2.89743 -16.4918
ltibia -1.27222e-014
lfoot -49.1043 26.8322
ltoes 52.3359
